<svg width="614" height="100" viewBox="0 0 614 100" fill="none" xmlns="http://www.w3.org/2000/svg">
<mask id="mask0_2673_5690" style="mask-type:luminance" maskUnits="userSpaceOnUse" x="0" y="0" width="614" height="100">
<path d="M614 0H0V100H614V0Z" fill="white"/>
</mask>
<g mask="url(#mask0_2673_5690)">
<path d="M51.4248 0L39.1949 38.1661H0L10.9015 46.3882H45.1846L51.4248 27.2286L57.3893 46.3882H91.9732L102.875 38.1661H63.6794L51.4248 0Z" fill="white"/>
<path d="M59.9955 54.7388L67.2129 77.9202L51.4246 65.9837L34.9094 77.9202L42.4777 54.7388H21.978L31.5763 61.9365L19.6475 100L51.4246 76.5624L83.2266 100L71.2977 61.9365L80.896 54.7388H59.9955Z" fill="white"/>
<path d="M129.539 25.5122H127.885V17.9811L125.404 25.5122H123.625L121.044 17.9557V25.5122H119.39V15.9578H122.046L124.527 23.2581L126.883 15.9578H129.539V25.5122Z" fill="white"/>
<path d="M148.911 25.5122H141.919V15.9578H148.911V17.4689H143.598V19.9537H147.884V21.4907H143.598V23.975H148.911V25.5122Z" fill="white"/>
<path d="M170.614 27.3307H168.96V25.6148H162.244V27.4334H160.615V23.975H161.091C161.417 23.975 161.617 23.975 161.717 23.7703C161.805 23.6322 161.857 23.4734 161.868 23.3093L163.021 15.9578H169.612V23.975H170.614V27.3307ZM167.907 23.975V17.4689H164.474L163.522 23.0532C163.498 23.3383 163.422 23.6169 163.296 23.873L167.907 23.975Z" fill="white"/>
<path d="M184.723 25.5122H182.693V15.9578H184.347V22.874L188.558 15.9578H190.512V25.5122H188.858V18.6473L184.723 25.5122Z" fill="white"/>
<path d="M210.811 25.6148H209.058L208.506 23.7189H204.873L204.321 25.6148H202.542L205.499 15.9578H207.703L210.811 25.6148ZM208.005 22.0797L206.652 17.5716L205.297 22.0797H208.005Z" fill="white"/>
<path d="M224.495 25.5122H222.84V15.9578H229.481V17.4689H224.495V25.5122Z" fill="white"/>
<path d="M243.09 25.6148H241.435V15.9578H247.275C248.527 15.9578 248.978 16.2138 248.978 17.3409V20.4918C248.978 21.6189 248.527 21.875 247.275 21.875H243.09V25.6148ZM247.35 17.9303C247.35 17.5716 247.35 17.5457 246.798 17.5457H243.09V20.3124H246.798C247.299 20.3124 247.35 20.3124 247.35 19.9283V17.9303Z" fill="white"/>
<path d="M263.263 25.5122H261.435L264.392 21.3622L260.483 15.9578H262.337L265.345 20.0817L268.326 15.9578H270.18L263.263 25.5122Z" fill="white"/>
<path d="M290.154 25.5122H288.499V17.4689H283.638V25.5122H281.985V15.9578H290.154V25.5122Z" fill="white"/>
<path d="M310.704 25.5122H309.076V17.4689H304.214V25.5122H302.559V15.9578H310.704V25.5122Z" fill="white"/>
<path d="M331.002 25.6148H329.249L328.697 23.7189H325.064L324.512 25.6148H322.732L325.79 15.9578H327.997L331.002 25.6148ZM328.297 22.0797L326.944 17.5716L325.615 22.0797H328.297Z" fill="white"/>
<path d="M125.454 77.3308C120.693 77.3308 118.462 76.4085 118.462 71.5675V65.5991H125.304V69.5183C125.304 71.0293 125.504 71.0808 127.535 71.0808H140.917C142.872 71.0808 143.072 71.0807 143.072 69.5183V62.4999C143.072 60.9375 142.721 60.8861 140.917 60.8861H131.469V54.6361H140.792C142.772 54.6361 142.972 54.6361 142.972 53.0736V46.1061C142.972 44.5436 142.596 44.4928 140.792 44.4928H127.484C125.63 44.4928 125.254 44.4928 125.254 46.1061V49.974H118.462V43.9034C118.462 39.0624 120.693 38.1401 125.454 38.1401H142.847C147.608 38.1401 149.839 39.0624 149.839 43.9034V52.7916C149.839 55.7377 149.112 57.1977 147.332 57.9146C149.087 58.632 149.839 60.1432 149.839 63.0375V71.5416C149.839 76.383 147.608 77.3052 142.847 77.3052L125.454 77.3308Z" fill="white"/>
<path d="M157.658 77.3308V38.1401H181.816C186.578 38.1401 188.808 39.0624 188.808 43.9034V52.7916C188.808 55.7377 188.082 57.1977 186.302 57.9146C188.106 58.632 188.808 60.1432 188.808 63.0375V71.5416C188.808 76.383 186.578 77.3052 181.816 77.3052L157.658 77.3308ZM182.067 46.1061C182.067 44.5436 181.691 44.4928 179.836 44.4928H164.449V54.7387H179.836C181.816 54.7387 182.067 54.7387 182.067 53.1763V46.1061ZM182.067 62.602C182.067 61.0395 181.691 60.9887 179.836 60.9887H164.449V71.2342H179.836C181.816 71.2342 182.067 71.2342 182.067 69.6722V62.602Z" fill="white"/>
<path d="M196.727 77.3308V38.1401H225.396V44.3901H203.518V54.5848H221.237V60.8348H203.518V71.0808H225.396V77.3308H196.727Z" fill="white"/>
<path d="M237.753 77.3308C232.99 77.3308 230.759 76.4085 230.759 71.5675V65.5991H237.552V69.5183C237.552 71.0293 237.753 71.0808 239.782 71.0808H253.115C255.07 71.0808 255.269 71.0807 255.269 69.5183V62.4999C255.269 60.9375 254.919 60.8861 253.115 60.8861H243.766V54.6361H253.115C255.07 54.6361 255.269 54.6361 255.269 53.0736V46.1061C255.269 44.5436 254.919 44.4928 253.115 44.4928H239.782C237.928 44.4928 237.552 44.4928 237.552 46.1061V49.974H230.759V43.9034C230.759 39.0624 232.99 38.1401 237.753 38.1401H255.07C259.855 38.1401 262.061 39.0624 262.061 43.9034V52.7916C262.061 55.7377 261.334 57.1977 259.555 57.9146C261.308 58.632 262.061 60.1432 262.061 63.0375V71.5416C262.061 76.383 259.855 77.3052 255.07 77.3052L237.753 77.3308Z" fill="white"/>
<path d="M300.353 84.8618V77.3307H272.787V84.8618H266.045V71.0807H268.026C270.883 71.0807 270.984 69.8769 271.257 68.3144L275.92 38.1401H303.111V71.0807H307.246V84.8618H300.353ZM296.218 44.3901H281.834L277.949 67.725C277.79 68.8844 277.468 70.014 276.997 71.0807H296.218V44.3901Z" fill="white"/>
<path d="M338.095 77.3308L335.814 69.6463H320.903L318.624 77.3308H311.354L323.886 38.1401H332.907L345.439 77.3308H338.095ZM328.297 44.8256L322.783 63.2683H333.835L328.297 44.8256Z" fill="white"/>
<mask id="mask1_2673_5690" style="mask-type:luminance" maskUnits="userSpaceOnUse" x="386" y="35" width="228" height="45">
<path d="M614 35.5554H386.349V79.9999H614V35.5554Z" fill="white"/>
</mask>
<g mask="url(#mask1_2673_5690)">
<path fill-rule="evenodd" clip-rule="evenodd" d="M507.165 62.4145H508.716L515.278 75.9802H525.885L516.559 57.1828L525.404 39.5559H515.133L508.714 52.8398H507.165V39.5559H497.565V76.0002H507.165V62.4145ZM544.853 59.4465V76.0002H554.454V39.5559H545.268L537.406 56.1016V39.5559H527.806V76.0002H536.992L544.853 59.4465ZM567.309 62.4145H573.383V76.0002H582.983V39.5559H573.383V52.8398H567.309V39.5559H557.709V76.0002H567.309V62.4145ZM586.247 39.5559V76.0002H611.525V39.5559H586.247ZM595.851 66.4139V49.1298H601.925V66.4139H595.851Z" fill="#E2241D"/>
<path fill-rule="evenodd" clip-rule="evenodd" d="M409.848 76.0002H420.741L424.07 49.1453H427.142V76.0002H436.743V39.5559H415.654L412.616 66.4139H409.852V76.0002H409.848ZM449.874 67.942H455.902L456.645 76.0002H466.261L462.704 39.5559H443.064L439.521 76.0002H449.14L449.874 67.942ZM451.586 49.1363H454.189L455.054 58.3647H450.718L451.586 49.1363ZM494.304 60.6571L490.723 57.7784L494.314 54.8955V39.5559H469.033V76.0002H494.304V60.6571ZM484.701 66.4204H478.626V62.3173H482.735L484.699 64.1677V66.4204H484.701ZM484.701 51.3867L482.735 53.2349H478.624V49.1363H484.699V51.3877L484.701 51.3867ZM398.425 76.0002V49.1363H410.574L411.627 39.5559H388.823V76.0002H398.425Z" fill="white"/>
</g>
<path d="M366.649 15.5557H363.365V84.4446H366.649V15.5557Z" fill="#E2241D"/>
</g>
</svg>
