<svg width="436" height="72" viewBox="0 0 436 72" fill="none" xmlns="http://www.w3.org/2000/svg">
<g clip-path="url(#clip0_2673_5722)">
<mask id="mask0_2673_5722" style="mask-type:luminance" maskUnits="userSpaceOnUse" x="0" y="0" width="436" height="72">
<path d="M436 0H0V72H436V0Z" fill="white"/>
</mask>
<g mask="url(#mask0_2673_5722)">
<path d="M36.5166 0L27.8322 27.4796H0L7.7411 33.3995H32.0855L36.5166 19.6046L40.752 33.3995H65.3099L73.051 27.4796H45.2186L36.5166 0Z" fill="#E12F28"/>
<path d="M42.6027 39.4119L47.7277 56.1025L36.5165 47.5082L24.7891 56.1025L30.1634 39.4119H15.6066L22.4223 44.5942L13.9517 71.9999L36.5165 55.1249L59.0991 71.9999L50.6284 44.5942L57.4441 39.4119H42.6027Z" fill="#E12F28"/>
<path d="M91.9855 18.3688H90.811V12.9464L89.0493 18.3688H87.7857L85.9528 12.9282V18.3688H84.7783V11.4896H86.6646L88.4264 16.7459L90.0991 11.4896H91.9855V18.3688Z" fill="white"/>
<path d="M105.742 18.3688H100.777V11.4896H105.742V12.5777H101.969V14.3667H105.012V15.4734H101.969V17.2621H105.742V18.3688Z" fill="white"/>
<path d="M121.153 19.6782H119.978V18.4427H115.209V19.7521H114.052V17.2621H114.39C114.622 17.2621 114.764 17.2621 114.835 17.1147C114.897 17.0152 114.934 16.9009 114.942 16.7827L115.76 11.4896H120.441V17.2621H121.153V19.6782ZM119.231 17.2621V12.5777H116.793L116.116 16.5983C116.1 16.8036 116.045 17.0042 115.956 17.1886L119.231 17.2621Z" fill="white"/>
<path d="M131.171 18.3688H129.73V11.4896H130.904V16.4693L133.894 11.4896H135.282V18.3688H134.108V13.4261L131.171 18.3688Z" fill="white"/>
<path d="M149.697 18.4427H148.452L148.06 17.0776H145.48L145.088 18.4427H143.824L145.924 11.4896H147.489L149.697 18.4427ZM147.704 15.8974L146.743 12.6516L145.781 15.8974H147.704Z" fill="white"/>
<path d="M159.413 18.3688H158.238V11.4896H162.954V12.5777H159.413V18.3688Z" fill="white"/>
<path d="M172.617 18.4427H171.442V11.4896H175.589C176.479 11.4896 176.799 11.674 176.799 12.4855V14.7541C176.799 15.5656 176.479 15.7501 175.589 15.7501H172.617V18.4427ZM175.642 12.9099C175.642 12.6516 175.642 12.6329 175.251 12.6329H172.617V14.625H175.251C175.607 14.625 175.642 14.625 175.642 14.3484V12.9099Z" fill="white"/>
<path d="M186.942 18.3688H185.644L187.744 15.3808L184.968 11.4896H186.285L188.421 14.4589L190.538 11.4896H191.854L186.942 18.3688Z" fill="white"/>
<path d="M206.038 18.3688H204.863V12.5777H201.41V18.3688H200.237V11.4896H206.038V18.3688Z" fill="white"/>
<path d="M220.63 18.3688H219.474V12.5777H216.022V18.3688H214.847V11.4896H220.63V18.3688Z" fill="white"/>
<path d="M235.044 18.4427H233.799L233.408 17.0776H230.827L230.436 18.4427H229.172L231.343 11.4896H232.91L235.044 18.4427ZM233.123 15.8974L232.162 12.6516L231.219 15.8974H233.123Z" fill="white"/>
<path d="M89.0848 55.6782C85.7038 55.6782 84.1199 55.0142 84.1199 51.5286V47.2314H88.9781V50.0532C88.9781 51.1412 89.1204 51.1782 90.562 51.1782H100.065C101.453 51.1782 101.595 51.1782 101.595 50.0532V45C101.595 43.875 101.346 43.838 100.065 43.838H93.3559V39.338H99.9758C101.382 39.338 101.524 39.338 101.524 38.213V33.1964C101.524 32.0714 101.257 32.0348 99.9758 32.0348H90.5264C89.2095 32.0348 88.9425 32.0348 88.9425 33.1964V35.9813H84.1199V31.6105C84.1199 28.125 85.7038 27.4609 89.0848 27.4609H101.435C104.816 27.4609 106.4 28.125 106.4 31.6105V38.01C106.4 40.1312 105.884 41.1824 104.62 41.6986C105.866 42.2151 106.4 43.3031 106.4 45.387V51.51C106.4 54.9958 104.816 55.6598 101.435 55.6598L89.0848 55.6782Z" fill="#E12F28"/>
<path d="M111.952 55.6782V27.4609H129.107C132.488 27.4609 134.072 28.125 134.072 31.6105V38.01C134.072 40.1312 133.556 41.1824 132.292 41.6986C133.574 42.2151 134.072 43.3031 134.072 45.387V51.51C134.072 54.9958 132.488 55.6598 129.107 55.6598L111.952 55.6782ZM129.285 33.1964C129.285 32.0714 129.018 32.0348 127.701 32.0348H116.775V39.4119H127.701C129.107 39.4119 129.285 39.4119 129.285 38.2869V33.1964ZM129.285 45.0735C129.285 43.9485 129.018 43.9119 127.701 43.9119H116.775V51.2887H127.701C129.107 51.2887 129.285 51.2887 129.285 50.164V45.0735Z" fill="#E12F28"/>
<path d="M139.695 55.6782V27.4609H160.053V31.9609H144.517V39.3011H157.1V43.8011H144.517V51.1782H160.053V55.6782H139.695Z" fill="#E12F28"/>
<path d="M168.828 55.6782C165.446 55.6782 163.862 55.0142 163.862 51.5286V47.2314H168.685V50.0532C168.685 51.1412 168.828 51.1782 170.269 51.1782H179.737C181.125 51.1782 181.266 51.1782 181.266 50.0532V45C181.266 43.875 181.017 43.838 179.737 43.838H173.098V39.338H179.737C181.125 39.338 181.266 39.338 181.266 38.213V33.1964C181.266 32.0714 181.017 32.0348 179.737 32.0348H170.269C168.952 32.0348 168.685 32.0348 168.685 33.1964V35.9813H163.862V31.6105C163.862 28.125 165.446 27.4609 168.828 27.4609H181.125C184.523 27.4609 186.089 28.125 186.089 31.6105V38.01C186.089 40.1312 185.573 41.1824 184.31 41.6986C185.555 42.2151 186.089 43.3031 186.089 45.387V51.51C186.089 54.9958 184.523 55.6598 181.125 55.6598L168.828 55.6782Z" fill="#E12F28"/>
<path d="M213.28 61.1005V55.6782H193.705V61.1005H188.918V51.1782H190.325C192.353 51.1782 192.425 50.3114 192.619 49.1864L195.93 27.4609H215.238V51.1782H218.174V61.1005H213.28ZM210.343 31.9609H200.13L197.371 48.7621C197.258 49.5968 197.029 50.4101 196.694 51.1782H210.343V31.9609Z" fill="#E12F28"/>
<path d="M240.08 55.6782L238.46 50.1453H227.872L226.254 55.6782H221.092L229.99 27.4609H236.396L245.295 55.6782H240.08ZM233.123 32.2745L229.207 45.5532H237.055L233.123 32.2745Z" fill="#E12F28"/>
<mask id="mask1_2673_5722" style="mask-type:luminance" maskUnits="userSpaceOnUse" x="274" y="25" width="162" height="33">
<path d="M436 25.5999H274.346V57.5999H436V25.5999Z" fill="white"/>
</mask>
<g mask="url(#mask1_2673_5722)">
<path fill-rule="evenodd" clip-rule="evenodd" d="M360.138 44.9383H361.238L365.899 54.7056H373.431L366.808 41.1715L373.089 28.4801H365.796L361.237 38.0445H360.138V28.4801H353.32V54.72H360.138V44.9383ZM386.899 42.8013V54.72H393.717V28.4801H387.194L381.612 40.393V28.4801H374.794V54.72H381.317L386.899 42.8013ZM402.846 44.9383H407.158V54.72H413.976V28.4801H407.158V38.0445H402.846V28.4801H396.028V54.72H402.846V44.9383ZM416.293 28.4801V54.72H434.243V28.4801H416.293ZM423.113 47.8178V35.3733H427.426V47.8178H423.113Z" fill="#E2241D"/>
<path fill-rule="evenodd" clip-rule="evenodd" d="M291.032 54.72H298.767L301.132 35.3845H303.313V54.72H310.131V28.4801H295.155L292.998 47.8178H291.035V54.72H291.032ZM319.455 48.9181H323.735L324.263 54.72H331.091L328.565 28.4801H314.619L312.103 54.72H318.933L319.455 48.9181ZM320.67 35.378H322.519L323.133 42.0224H320.054L320.67 35.378ZM351.004 43.673L348.461 41.6003L351.012 39.5246V28.4801H333.06V54.72H351.004V43.673ZM344.186 47.8225H339.871V44.8683H342.789L344.184 46.2006V47.8225H344.186ZM344.186 36.9983L342.789 38.329H339.87V35.378H344.184V36.999L344.186 36.9983ZM282.921 54.72V35.378H291.548L292.296 28.4801H276.103V54.72H282.921Z" fill="white"/>
</g>
<path d="M260.356 11.2002H258.025V60.8002H260.356V11.2002Z" fill="#E2241D"/>
</g>
</g>
<defs>
<clipPath id="clip0_2673_5722">
<rect width="436" height="72" fill="white"/>
</clipPath>
</defs>
</svg>
