<svg width="276" height="62" viewBox="0 0 276 62" fill="none" xmlns="http://www.w3.org/2000/svg">
<rect width="276" height="62" fill="#E2241D"/>
<path d="M41.36 25V39H38.24V27.56H28.94V39H25.82V25H41.36ZM45.3597 37.8C44.0664 36.8267 43.4197 35.48 43.4197 33.76C43.4197 32.04 44.0664 30.7 45.3597 29.74C46.653 28.7667 48.393 28.28 50.5797 28.28C52.753 28.28 54.4864 28.7667 55.7797 29.74C57.073 30.7 57.7197 32.04 57.7197 33.76C57.7197 35.48 57.073 36.8267 55.7797 37.8C54.4864 38.76 52.753 39.24 50.5797 39.24C48.393 39.24 46.653 38.76 45.3597 37.8ZM47.4997 31.44C46.753 32.04 46.3797 32.8133 46.3797 33.76C46.3797 34.7067 46.753 35.48 47.4997 36.08C48.2597 36.68 49.2864 36.98 50.5797 36.98C51.873 36.98 52.893 36.68 53.6397 36.08C54.3997 35.48 54.7797 34.7067 54.7797 33.76C54.7797 32.8133 54.3997 32.04 53.6397 31.44C52.893 30.84 51.873 30.54 50.5797 30.54C49.2864 30.54 48.2597 30.84 47.4997 31.44ZM71.48 36.54H73.26V41.76H70.44V39H60.88V41.76H58.06V36.54H59.26C59.54 36.0867 59.7667 35.4467 59.94 34.62C60.1133 33.7933 60.2333 33.0133 60.3 32.28C60.38 31.5467 60.4933 30.2933 60.64 28.52H71.48V36.54ZM68.52 36.54V30.98H63.1C62.94 32.5133 62.7933 33.6667 62.66 34.44C62.5267 35.2 62.32 35.9 62.04 36.54H68.52ZM82.2594 28.28C84.086 28.28 85.566 28.7733 86.6994 29.76C87.846 30.7333 88.4194 32.0667 88.4194 33.76C88.4194 35.4533 87.8527 36.7933 86.7194 37.78C85.586 38.7533 84.1127 39.24 82.2994 39.24C80.086 39.24 78.4727 38.5667 77.4594 37.22V43H74.4794V28.52H77.2194V30.62C78.166 29.06 79.846 28.28 82.2594 28.28ZM78.4194 36.1C79.1527 36.6867 80.146 36.98 81.3994 36.98C82.6527 36.98 83.646 36.6867 84.3794 36.1C85.1127 35.5133 85.4794 34.7333 85.4794 33.76C85.4794 32.7867 85.1127 32.0067 84.3794 31.42C83.646 30.8333 82.6527 30.54 81.3994 30.54C80.146 30.54 79.1527 30.8333 78.4194 31.42C77.686 32.0067 77.3194 32.7867 77.3194 33.76C77.3194 34.7333 77.686 35.5133 78.4194 36.1ZM91.4503 37.8C90.157 36.8267 89.5103 35.48 89.5103 33.76C89.5103 32.04 90.157 30.7 91.4503 29.74C92.7436 28.7667 94.4836 28.28 96.6703 28.28C98.8436 28.28 100.577 28.7667 101.87 29.74C103.164 30.7 103.81 32.04 103.81 33.76C103.81 35.48 103.164 36.8267 101.87 37.8C100.577 38.76 98.8436 39.24 96.6703 39.24C94.4836 39.24 92.7436 38.76 91.4503 37.8ZM93.5903 31.44C92.8436 32.04 92.4703 32.8133 92.4703 33.76C92.4703 34.7067 92.8436 35.48 93.5903 36.08C94.3503 36.68 95.377 36.98 96.6703 36.98C97.9636 36.98 98.9836 36.68 99.7303 36.08C100.49 35.48 100.87 34.7067 100.87 33.76C100.87 32.8133 100.49 32.04 99.7303 31.44C98.9836 30.84 97.9636 30.54 96.6703 30.54C95.377 30.54 94.3503 30.84 93.5903 31.44ZM112.767 28.92C114.727 28.92 116.314 29.3933 117.527 30.34C118.74 31.2867 119.347 32.5333 119.347 34.08C119.347 35.6533 118.707 36.9067 117.427 37.84C116.147 38.7733 114.4 39.24 112.187 39.24C110 39.24 108.26 38.6933 106.967 37.6C105.687 36.5067 105.047 34.7533 105.047 32.34C105.047 30.1533 105.494 28.48 106.387 27.32C107.294 26.16 108.774 25.3933 110.827 25.02C111.534 24.8867 112.84 24.7267 114.747 24.54C116.2 24.38 117.24 24.2133 117.867 24.04V26.36C117.254 26.6267 116.327 26.8133 115.087 26.92C114.794 26.9467 114.507 26.9733 114.227 27C113.947 27.0133 113.627 27.0333 113.267 27.06C112.907 27.0867 112.594 27.1067 112.327 27.12C111.567 27.1867 110.947 27.2867 110.467 27.42C109.987 27.54 109.507 27.7533 109.027 28.06C108.547 28.3667 108.167 28.82 107.887 29.42C107.62 30.0067 107.427 30.76 107.307 31.68C107.734 30.8133 108.414 30.14 109.347 29.66C110.28 29.1667 111.42 28.92 112.767 28.92ZM112.187 36.98C113.507 36.98 114.54 36.72 115.287 36.2C116.034 35.68 116.407 34.9733 116.407 34.08C116.407 33.1867 116.034 32.48 115.287 31.96C114.54 31.44 113.507 31.18 112.187 31.18C110.88 31.18 109.854 31.44 109.107 31.96C108.374 32.48 108.007 33.1867 108.007 34.08C108.007 34.9733 108.374 35.68 109.107 36.2C109.854 36.72 110.88 36.98 112.187 36.98ZM121.019 39V28.52H123.999V32.44H130.959V28.52H133.939V39H130.959V34.88H123.999V39H121.019ZM149.581 34.32V34.64H138.621C138.994 36.3467 140.434 37.2 142.941 37.2C144.634 37.2 145.808 36.8067 146.461 36.02L149.361 36.14C148.974 37.1267 148.234 37.8933 147.141 38.44C146.048 38.9733 144.648 39.24 142.941 39.24C140.674 39.24 138.881 38.7867 137.561 37.88C136.254 36.9733 135.601 35.6 135.601 33.76C135.601 31.9467 136.248 30.58 137.541 29.66C138.848 28.74 140.588 28.28 142.761 28.28C147.308 28.28 149.581 30.2933 149.581 34.32ZM142.761 30.32C140.388 30.32 139.014 31.1533 138.641 32.82H146.641C146.574 32.0467 146.201 31.44 145.521 31C144.854 30.5467 143.934 30.32 142.761 30.32ZM164.606 34.32V34.64H153.646C154.019 36.3467 155.459 37.2 157.966 37.2C159.659 37.2 160.833 36.8067 161.486 36.02L164.386 36.14C163.999 37.1267 163.259 37.8933 162.166 38.44C161.073 38.9733 159.673 39.24 157.966 39.24C155.699 39.24 153.906 38.7867 152.586 37.88C151.279 36.9733 150.626 35.6 150.626 33.76C150.626 31.9467 151.273 30.58 152.566 29.66C153.873 28.74 155.613 28.28 157.786 28.28C162.333 28.28 164.606 30.2933 164.606 34.32ZM157.786 30.32C155.413 30.32 154.039 31.1533 153.666 32.82H161.666C161.599 32.0467 161.226 31.44 160.546 31C159.879 30.5467 158.959 30.32 157.786 30.32Z" fill="white"/>
<path d="M240 19L252 31L240 43" stroke="white" stroke-width="2"/>
<path d="M234 19L246 31L234 43" stroke="white" stroke-width="2"/>
</svg>
